<?xml version="1.0" encoding="UTF-8" standalone="no"?>
<!-- Created with Inkscape (http://www.inkscape.org/) -->

<svg
   xmlns:dc="http://purl.org/dc/elements/1.1/"
   xmlns:cc="http://creativecommons.org/ns#"
   xmlns:rdf="http://www.w3.org/1999/02/22-rdf-syntax-ns#"
   xmlns:svg="http://www.w3.org/2000/svg"
   xmlns="http://www.w3.org/2000/svg"
   xmlns:sodipodi="http://sodipodi.sourceforge.net/DTD/sodipodi-0.dtd"
   xmlns:inkscape="http://www.inkscape.org/namespaces/inkscape"
   width="210mm"
   height="210mm"
   viewBox="0 0 744.09449 744.09448"
   id="svg2"
   version="1.1"
   inkscape:version="0.92.0 r15299"
   sodipodi:docname="capturer.svg">
  <sodipodi:namedview
     pagecolor="#ffffff"
     bordercolor="#666666"
     borderopacity="1"
     objecttolerance="10"
     gridtolerance="10"
     guidetolerance="10"
     inkscape:pageopacity="0"
     inkscape:pageshadow="2"
     inkscape:window-width="1920"
     inkscape:window-height="1058"
     id="namedview4147"
     showgrid="false"
     inkscape:zoom="0.95417986"
     inkscape:cx="399.52479"
     inkscape:cy="398.35018"
     inkscape:window-x="1192"
     inkscape:window-y="1055"
     inkscape:window-maximized="1"
     inkscape:current-layer="layer1" />
  <defs
     id="defs4" />
  <metadata
     id="metadata7">
    <rdf:RDF>
      <cc:Work
         rdf:about="">
        <dc:format>image/svg+xml</dc:format>
        <dc:type
           rdf:resource="http://purl.org/dc/dcmitype/StillImage" />
        <dc:title />
      </cc:Work>
    </rdf:RDF>
  </metadata>
  <g
     inkscape:label="Layer 1"
     inkscape:groupmode="layer"
     id="layer1"
     transform="translate(0,-308.26772)">
    <circle
       style="opacity:1;fill:none;fill-opacity:1;stroke:#800000;stroke-width:38.52136993;stroke-miterlimit:4;stroke-dasharray:none;stroke-opacity:1"
       id="circle"
       cx="372.23267"
       cy="680.07013"
       r="352.23074" />
    <path
       style="fill:#800000;fill-opacity:1;fill-rule:evenodd;stroke:none;stroke-width:1px;stroke-linecap:butt;stroke-linejoin:miter;stroke-opacity:1"
       d="m 497.64019,971.9449 c 0,0 59.80389,-24.89774 104.77974,-72.00702 74.37547,-84.80247 80.9483,-160.52956 80.9483,-160.52956 0,0 -66.15291,40.84187 -183.15691,72.8654 -74.98064,15.32513 -187.6276,7.66563 -187.6276,7.66563 0,0 39.92984,50.79563 98.75935,97.41614 56.73165,44.95803 86.29712,54.58941 86.29712,54.58941 z"
       id="path_1"
       inkscape:connector-curvature="0"
       sodipodi:nodetypes="cccccsc" />
    <path
       style="fill:#800000;fill-opacity:1;fill-rule:evenodd;stroke:none;stroke-width:1px;stroke-linecap:butt;stroke-linejoin:miter;stroke-opacity:1"
       d="m 686.75123,719.46038 c 0,0 13.3077,-45.89069 -7.02381,-129.4065 C 637.08988,474.64221 579.13086,441.21597 579.13086,441.21597 c 0,0 1.97567,78.50562 -28.04855,196.03854 -23.75757,72.74983 -86.11883,166.87248 -86.11883,166.87248 0,0 63.8957,-9.58776 133.50839,-37.66729 67.13026,-27.07824 88.27936,-46.99932 88.27936,-46.99932 z"
       id="path_2"
       inkscape:connector-curvature="0"
       sodipodi:nodetypes="cccccsc" />
    <path
       style="fill:#800000;fill-opacity:1;fill-rule:evenodd;stroke:none;stroke-width:1px;stroke-linecap:butt;stroke-linejoin:miter;stroke-opacity:1"
       d="m 561.45071,425.52286 c 0,0 -43.87804,-36.17969 -118.55977,-55.13088 -104.12363,-21.59409 -177.88183,10.58793 -177.88183,10.58793 0,0 69.17275,40.35207 157.10286,123.92087 51.9015,56.24223 103.61644,156.60939 103.61644,156.60939 0,0 22.81679,-60.44815 32.28403,-134.91126 9.12963,-71.80776 3.43827,-101.07605 3.43827,-101.07605 z"
       id="path_3"
       inkscape:connector-curvature="0"
       sodipodi:nodetypes="cccccsc" />
    <path
       style="fill:#800000;fill-opacity:1;fill-rule:evenodd;stroke:none;stroke-width:1px;stroke-linecap:butt;stroke-linejoin:miter;stroke-opacity:1"
       d="m 246.21748,387.28195 c 0,0 -67.84113,32.32166 -105.4623,73.00316 -72.583588,80.8896 -81.475355,160.66729 -81.475355,160.66729 0,0 69.323755,-40.14738 186.271315,-72.37647 74.9536,-15.45686 187.61382,-7.99532 187.61382,-7.99532 0,0 -40.01904,-50.7254 -98.93036,-97.24246 -56.81056,-44.85827 -88.01712,-56.0562 -88.01712,-56.0562 z"
       id="path_4"
       inkscape:connector-curvature="0"
       sodipodi:nodetypes="cccccsc" />
    <path
       style="fill:#800000;fill-opacity:1;fill-rule:evenodd;stroke:none;stroke-width:1px;stroke-linecap:butt;stroke-linejoin:miter;stroke-opacity:1"
       d="m 56.134748,641.30275 c 0,0 -10.704616,57.62685 10.44432,127.09139 19.042912,87.21725 98.108002,153.21618 98.108002,153.21618 0,0 -0.28754,-81.77482 31.06184,-198.96126 24.57752,-72.47692 87.99759,-165.88941 87.99759,-165.88941 0,0 -63.99992,8.86566 -133.92522,36.15739 -67.431725,26.3185 -93.686532,48.38571 -93.686532,48.38571 z"
       id="path_5"
       inkscape:connector-curvature="0"
       sodipodi:nodetypes="cccccsc" />
    <path
       style="fill:#800000;fill-opacity:1;fill-rule:evenodd;stroke:none;stroke-width:1px;stroke-linecap:butt;stroke-linejoin:miter;stroke-opacity:1"
       d="m 183.10327,936.80285 c 0,0 52.19187,38.81467 116.17569,53.54893 103.84954,22.55382 177.28471,-10.47228 177.28471,-10.47228 0,0 -67.8494,-38.09137 -154.5799,-122.90446 C 270.88884,799.99901 220.6092,698.90517 220.6092,698.90517 c 0,0 -23.67576,60.11698 -34.20295,134.43764 -10.15182,71.67035 -3.30298,103.46004 -3.30298,103.46004 z"
       id="path_6"
       inkscape:connector-curvature="0"
       sodipodi:nodetypes="cccccsc" />
  </g>
</svg>
